<?xml version="1.0" standalone="no"?>
<!DOCTYPE svg PUBLIC "-//W3C//DTD SVG 20010904//EN"
 "http://www.w3.org/TR/2001/REC-SVG-20010904/DTD/svg10.dtd">
<svg version="1.0" xmlns="http://www.w3.org/2000/svg"
 width="300.000000pt" height="300.000000pt" viewBox="0 0 300.000000 300.000000"
 preserveAspectRatio="xMidYMid meet">

<g transform="translate(0.000000,300.000000) scale(0.100000,-0.100000)"
fill="#000000" stroke="none">
<path d="M1364 2980 c-527 -56 -964 -360 -1203 -838 -106 -211 -163 -516 -141
-750 36 -383 179 -692 441 -949 286 -280 640 -425 1039 -425 416 0 777 155
1070 458 267 277 411 635 411 1024 0 559 -304 1058 -801 1319 -244 128 -552
189 -816 161z m288 -789 c124 -43 237 -145 299 -269 31 -64 33 -72 33 -182 l1
-115 -27 -3 c-32 -4 -35 3 -42 127 -3 67 -10 95 -36 147 -73 148 -240 254
-400 254 -55 0 -180 -42 -239 -80 -137 -87 -213 -259 -190 -426 27 -196 190
-353 388 -372 63 -7 66 -8 69 -35 5 -38 -15 -43 -117 -28 -108 16 -182 54
-269 139 -199 197 -200 521 -1 720 68 67 169 125 249 142 69 14 216 4 282 -19z
m60 -198 c25 -23 23 -68 -4 -87 -18 -13 -51 -16 -153 -16 -89 0 -135 -4 -143
-12 -7 -7 -12 -37 -12 -68 0 -31 5 -61 12 -68 8 -8 48 -12 114 -12 114 0 134
-9 134 -59 0 -46 -22 -56 -144 -61 l-111 -5 -3 -100 c-3 -110 -15 -135 -62
-135 -57 0 -58 8 -61 326 -1 160 1 296 5 302 5 9 65 12 208 12 173 0 204 -2
220 -17z m-592 -873 c0 -5 -22 -10 -50 -10 -49 0 -50 -1 -50 -30 0 -28 2 -30
40 -30 22 0 40 -4 40 -10 0 -5 -18 -10 -40 -10 -38 0 -40 -2 -40 -30 0 -16 -4
-30 -10 -30 -6 0 -10 33 -10 80 l0 80 60 0 c33 0 60 -4 60 -10z m50 -60 l0
-70 50 0 c28 0 50 -4 50 -10 0 -6 -27 -10 -60 -10 l-60 0 0 80 c0 47 4 80 10
80 6 0 10 -30 10 -70z m227 -10 c22 -58 27 -80 18 -80 -8 0 -17 9 -20 20 -5
16 -15 20 -46 20 -27 0 -39 -4 -39 -14 0 -16 -18 -31 -26 -23 -3 2 5 29 17 58
11 30 25 64 30 77 15 39 33 24 66 -58z m102 18 l27 -62 23 63 c17 45 28 61 40
59 13 -3 16 -17 16 -77 0 -51 -4 -76 -12 -78 -10 -4 -13 12 -14 54 l0 58 -22
-57 c-11 -32 -26 -58 -33 -58 -7 0 -21 24 -31 53 l-18 52 -3 -52 c-2 -38 -7
-53 -18 -53 -11 0 -14 16 -14 73 0 110 17 117 59 25z m266 52 c4 -6 -15 -10
-49 -10 -53 0 -56 -1 -56 -25 0 -22 4 -25 40 -25 22 0 40 -4 40 -10 0 -5 -18
-10 -40 -10 -36 0 -40 -2 -40 -25 0 -24 3 -25 55 -25 30 0 55 -4 55 -10 0 -6
-28 -10 -65 -10 l-65 0 0 80 0 80 59 0 c33 0 63 -4 66 -10z m118 4 c3 -3 -3
-23 -14 -43 -11 -20 -22 -53 -25 -73 -4 -21 -10 -38 -15 -38 -15 0 -9 53 11
98 l19 42 -39 0 c-22 0 -40 5 -40 10 0 11 92 14 103 4z m67 -74 c0 -47 -4 -80
-10 -80 -5 0 -10 25 -10 56 0 51 -2 55 -20 49 -11 -3 -20 -4 -20 -1 0 8 44 54
53 55 4 1 7 -35 7 -79z"/>
<path d="M1340 1076 c-15 -40 -13 -46 14 -46 24 0 24 2 14 33 -15 43 -16 44
-28 13z"/>
</g>
</svg>
